<mxfile host="Electron" modified="2023-05-09T06:02:49.513Z" agent="Mozilla/5.0 (Windows NT 10.0; Win64; x64) AppleWebKit/537.36 (KHTML, like Gecko) draw.io/21.2.8 Chrome/112.0.5615.165 Electron/24.2.0 Safari/537.36" etag="OpYbOf-_hONdYJKEh6CB" version="21.2.8" type="device">
  <diagram name="Page-1" id="K81hcoPApH8r8Bgp0YsX">
    <mxGraphModel dx="522" dy="2116" grid="1" gridSize="10" guides="1" tooltips="1" connect="1" arrows="1" fold="1" page="1" pageScale="1" pageWidth="1200" pageHeight="1600" math="0" shadow="0">
      <root>
        <mxCell id="0" />
        <mxCell id="1" parent="0" />
        <mxCell id="sk83jsFsgFCYlHRoNVqo-1" value="begin" style="ellipse;whiteSpace=wrap;html=1;" parent="1" vertex="1">
          <mxGeometry x="180" width="120" height="10" as="geometry" />
        </mxCell>
        <mxCell id="sk83jsFsgFCYlHRoNVqo-2" value="" style="endArrow=classic;html=1;rounded=0;exitX=0.5;exitY=1;exitDx=0;exitDy=0;entryX=0.5;entryY=0;entryDx=0;entryDy=0;" parent="1" source="sk83jsFsgFCYlHRoNVqo-1" edge="1">
          <mxGeometry width="50" height="50" relative="1" as="geometry">
            <mxPoint x="210" y="200" as="sourcePoint" />
            <mxPoint x="240" y="20" as="targetPoint" />
          </mxGeometry>
        </mxCell>
        <mxCell id="sk83jsFsgFCYlHRoNVqo-4" value="input s ,stn" style="shape=parallelogram;perimeter=parallelogramPerimeter;whiteSpace=wrap;html=1;fixedSize=1;" parent="1" vertex="1">
          <mxGeometry x="180" y="20" width="120" height="20" as="geometry" />
        </mxCell>
        <mxCell id="sk83jsFsgFCYlHRoNVqo-5" value="" style="endArrow=classic;html=1;rounded=0;exitX=0.5;exitY=1;exitDx=0;exitDy=0;entryX=0.5;entryY=0;entryDx=0;entryDy=0;" parent="1" source="sk83jsFsgFCYlHRoNVqo-4" target="sk83jsFsgFCYlHRoNVqo-6" edge="1">
          <mxGeometry width="50" height="50" relative="1" as="geometry">
            <mxPoint x="250" y="290" as="sourcePoint" />
            <mxPoint x="300" y="240" as="targetPoint" />
          </mxGeometry>
        </mxCell>
        <mxCell id="sk83jsFsgFCYlHRoNVqo-6" value="for i in s" style="shape=hexagon;perimeter=hexagonPerimeter2;whiteSpace=wrap;html=1;fixedSize=1;" parent="1" vertex="1">
          <mxGeometry x="180" y="50" width="120" height="20" as="geometry" />
        </mxCell>
        <mxCell id="sk83jsFsgFCYlHRoNVqo-7" value="" style="endArrow=classic;html=1;rounded=0;exitX=0.5;exitY=1;exitDx=0;exitDy=0;entryX=0.5;entryY=0;entryDx=0;entryDy=0;" parent="1" source="sk83jsFsgFCYlHRoNVqo-6" target="sk83jsFsgFCYlHRoNVqo-8" edge="1">
          <mxGeometry width="50" height="50" relative="1" as="geometry">
            <mxPoint x="250" y="290" as="sourcePoint" />
            <mxPoint x="300" y="240" as="targetPoint" />
          </mxGeometry>
        </mxCell>
        <mxCell id="sk83jsFsgFCYlHRoNVqo-8" value="if i== space" style="rhombus;whiteSpace=wrap;html=1;" parent="1" vertex="1">
          <mxGeometry x="200" y="80" width="80" height="40" as="geometry" />
        </mxCell>
        <mxCell id="sk83jsFsgFCYlHRoNVqo-9" value="stn+=i" style="rounded=0;whiteSpace=wrap;html=1;" parent="1" vertex="1">
          <mxGeometry x="150" y="120" width="50" height="20" as="geometry" />
        </mxCell>
        <mxCell id="sk83jsFsgFCYlHRoNVqo-10" value="" style="endArrow=classic;html=1;rounded=0;exitX=0;exitY=0.5;exitDx=0;exitDy=0;entryX=0.5;entryY=0;entryDx=0;entryDy=0;" parent="1" source="sk83jsFsgFCYlHRoNVqo-8" target="sk83jsFsgFCYlHRoNVqo-9" edge="1">
          <mxGeometry width="50" height="50" relative="1" as="geometry">
            <mxPoint x="110" y="100" as="sourcePoint" />
            <mxPoint x="160" y="50" as="targetPoint" />
            <Array as="points">
              <mxPoint x="175" y="100" />
            </Array>
          </mxGeometry>
        </mxCell>
        <mxCell id="sk83jsFsgFCYlHRoNVqo-11" value="" style="endArrow=classic;html=1;rounded=0;exitX=1;exitY=0.5;exitDx=0;exitDy=0;entryX=0.564;entryY=-0.05;entryDx=0;entryDy=0;entryPerimeter=0;" parent="1" source="sk83jsFsgFCYlHRoNVqo-8" target="sk83jsFsgFCYlHRoNVqo-12" edge="1">
          <mxGeometry width="50" height="50" relative="1" as="geometry">
            <mxPoint x="370" y="90" as="sourcePoint" />
            <mxPoint x="420" y="40" as="targetPoint" />
            <Array as="points">
              <mxPoint x="342" y="100" />
            </Array>
          </mxGeometry>
        </mxCell>
        <mxCell id="sk83jsFsgFCYlHRoNVqo-12" value="add stn to list words" style="rounded=0;whiteSpace=wrap;html=1;" parent="1" vertex="1">
          <mxGeometry x="280" y="120" width="110" height="20" as="geometry" />
        </mxCell>
        <mxCell id="sk83jsFsgFCYlHRoNVqo-13" value="stn=empty string" style="rounded=0;whiteSpace=wrap;html=1;" parent="1" vertex="1">
          <mxGeometry x="275" y="160" width="115" height="20" as="geometry" />
        </mxCell>
        <mxCell id="sk83jsFsgFCYlHRoNVqo-14" value="" style="endArrow=classic;html=1;rounded=0;entryX=0.583;entryY=0;entryDx=0;entryDy=0;exitX=0.564;exitY=1.05;exitDx=0;exitDy=0;exitPerimeter=0;entryPerimeter=0;" parent="1" source="sk83jsFsgFCYlHRoNVqo-12" target="sk83jsFsgFCYlHRoNVqo-13" edge="1">
          <mxGeometry width="50" height="50" relative="1" as="geometry">
            <mxPoint x="344" y="140" as="sourcePoint" />
            <mxPoint x="200" y="330" as="targetPoint" />
          </mxGeometry>
        </mxCell>
        <mxCell id="sk83jsFsgFCYlHRoNVqo-16" value="" style="endArrow=none;html=1;rounded=0;exitX=0.5;exitY=1;exitDx=0;exitDy=0;entryX=0.591;entryY=1.05;entryDx=0;entryDy=0;entryPerimeter=0;" parent="1" source="sk83jsFsgFCYlHRoNVqo-9" target="sk83jsFsgFCYlHRoNVqo-13" edge="1">
          <mxGeometry width="50" height="50" relative="1" as="geometry">
            <mxPoint x="150" y="290" as="sourcePoint" />
            <mxPoint x="200" y="240" as="targetPoint" />
            <Array as="points">
              <mxPoint x="175" y="200" />
              <mxPoint x="343" y="200" />
            </Array>
          </mxGeometry>
        </mxCell>
        <mxCell id="sk83jsFsgFCYlHRoNVqo-17" value="" style="endArrow=classic;html=1;rounded=0;entryX=0;entryY=0.5;entryDx=0;entryDy=0;" parent="1" target="sk83jsFsgFCYlHRoNVqo-6" edge="1">
          <mxGeometry width="50" height="50" relative="1" as="geometry">
            <mxPoint x="240" y="200" as="sourcePoint" />
            <mxPoint x="290" y="240" as="targetPoint" />
            <Array as="points">
              <mxPoint x="240" y="220" />
              <mxPoint x="140" y="220" />
              <mxPoint x="140" y="60" />
            </Array>
          </mxGeometry>
        </mxCell>
        <mxCell id="sk83jsFsgFCYlHRoNVqo-18" value="" style="endArrow=classic;html=1;rounded=0;exitX=1;exitY=0.5;exitDx=0;exitDy=0;" parent="1" source="sk83jsFsgFCYlHRoNVqo-6" edge="1">
          <mxGeometry width="50" height="50" relative="1" as="geometry">
            <mxPoint x="370" y="70" as="sourcePoint" />
            <mxPoint x="240" y="240" as="targetPoint" />
            <Array as="points">
              <mxPoint x="400" y="60" />
              <mxPoint x="400" y="230" />
              <mxPoint x="240" y="230" />
            </Array>
          </mxGeometry>
        </mxCell>
        <mxCell id="sk83jsFsgFCYlHRoNVqo-20" value="add stn to list words" style="rounded=0;whiteSpace=wrap;html=1;" parent="1" vertex="1">
          <mxGeometry x="180" y="240" width="120" height="20" as="geometry" />
        </mxCell>
        <mxCell id="sk83jsFsgFCYlHRoNVqo-21" value="" style="endArrow=classic;html=1;rounded=0;exitX=0.5;exitY=1;exitDx=0;exitDy=0;entryX=0.5;entryY=0;entryDx=0;entryDy=0;" parent="1" source="sk83jsFsgFCYlHRoNVqo-20" target="sk83jsFsgFCYlHRoNVqo-22" edge="1">
          <mxGeometry width="50" height="50" relative="1" as="geometry">
            <mxPoint x="130" y="350" as="sourcePoint" />
            <mxPoint x="180" y="300" as="targetPoint" />
          </mxGeometry>
        </mxCell>
        <mxCell id="sk83jsFsgFCYlHRoNVqo-22" value="return list words" style="ellipse;whiteSpace=wrap;html=1;" parent="1" vertex="1">
          <mxGeometry x="180" y="270" width="120" height="20" as="geometry" />
        </mxCell>
      </root>
    </mxGraphModel>
  </diagram>
</mxfile>
